# xmcd CD database file
#
# Track frame offsets:
#	182
#	21645
#	40380
#	58915
#	81532
#	95780
#	116587
#	134752
#	165447
#	183170
#	206000
#	229005
#	244667
#	283612
#
# Disc length: 4115 seconds
#
# Revision: 0
# Processed by: cddbd v1.5.2PL0 Copyright (c) Steve Scherf et al.
# Submitted via: CDex 1.70beta2
#
DISCID=d210110e
DTITLE=Vorious - Hit1 Jazz
DYEAR=1900
DGENRE=Jazz
TTITLE0=Giant Steps/John Coltrane
TTITLE1=Backlash/Freddie Hubbard
TTITLE2=Headin' Home/Joshur Redman
TTITLE3=Bag's Groove/MJQ Eith Bobby McFerrin&Take6
TTITLE4=Night In Tunisia/Roland Hanna
TTITLE5=Confirmation/Sonny Stitt
TTITLE6=Barbados/Phineas Newborn Jr.
TTITLE7=Days Of Wine And Rose/Art Farmer
TTITLE8=I Can't Get Started/Lee Konitz With Warne Marsh
TTITLE9=Tell Me A Bedtime Story/Herbie Hancock
TTITLE10=Pinocchio/Carl Allen
TTITLE11=Macdaddy/Cyrus Chestnut
TTITLE12=Comin' Home Baby/Herbie Mann
TTITLE13=My Back Page/Keith Jarrett
EXTD=
EXTT0=
EXTT1=
EXTT2=
EXTT3=
EXTT4=
EXTT5=
EXTT6=
EXTT7=
EXTT8=
EXTT9=
EXTT10=
EXTT11=
EXTT12=
EXTT13=
PLAYORDER=
